<svg width="32" height="32" viewBox="0 0 200 200" fill="none" xmlns="http://www.w3.org/2000/svg">
  <defs>
    <linearGradient id="faviconGradient" x1="0%" y1="0%" x2="100%" y2="100%">
      <stop offset="0%" style="stop-color:#2563eb;stop-opacity:1" />
      <stop offset="100%" style="stop-color:#4f46e5;stop-opacity:1" />
    </linearGradient>
    <radialGradient id="faviconPoolGradient" cx="50%" cy="50%">
      <stop offset="0%" style="stop-color:#3b82f6;stop-opacity:0.8" />
      <stop offset="100%" style="stop-color:#2563eb;stop-opacity:0.4" />
    </radialGradient>
  </defs>
  
  <!-- Shield outline -->
  <path d="M 100 50 Q 130 53, 145 70 Q 150 85, 147 105 Q 144 125, 130 138 Q 115 148, 100 150 Q 85 148, 70 138 Q 56 125, 53 105 Q 50 85, 55 70 Q 70 53, 100 50 Z" 
        fill="none" stroke="url(#faviconGradient)" stroke-width="3"/>
  
  <!-- Pool -->
  <circle cx="100" cy="100" r="40" fill="url(#faviconPoolGradient)"/>
  
  <!-- Lock -->
  <path d="M 100 70 L 108 74 L 108 85 Q 108 89, 104 91 Q 100 93, 96 91 Q 92 89, 92 85 L 92 74 Z" 
        fill="none" stroke="url(#faviconGradient)" stroke-width="3"/>
  <rect x="96" y="65" width="8" height="6" fill="url(#faviconGradient)" rx="1"/>
</svg>
